<?xml version="1.0" encoding="UTF-8" standalone="no"?>
<!DOCTYPE svg PUBLIC "-//W3C//DTD SVG 1.1//EN" "http://www.w3.org/Graphics/SVG/1.1/DTD/svg11.dtd">
<svg version="1.1" xmlns="http://www.w3.org/2000/svg" xmlns:xlink="http://www.w3.org/1999/xlink" preserveAspectRatio="xMidYMid meet" viewBox="0 0 640 640" width="640" height="640"><defs><path d="M337.78 84.73L341.5 85.44L344.99 86.23L348.27 87.08L351.34 88.01L354.21 88.99L356.88 90.03L359.36 91.13L361.66 92.28L363.78 93.48L365.72 94.72L367.5 96.01L369.12 97.33L370.59 98.69L371.91 100.08L373.09 101.49L374.13 102.93L375.04 104.39L375.83 105.87L376.5 107.36L377.06 108.86L377.52 110.37L377.87 111.88L378.14 113.38L378.31 114.89L378.41 116.39L378.43 117.87L378.38 119.35L378.27 120.8L378.1 122.23L377.88 123.64L377.61 125.02L377.31 126.37L376.97 127.68L376.61 128.95L376.23 130.19L375.83 131.37L375.43 132.51L375.02 133.59L374.62 134.62L374.17 135.6L373.64 136.56L373.01 137.5L372.31 138.42L371.53 139.31L370.68 140.18L369.77 141.02L368.8 141.84L367.77 142.64L366.7 143.41L365.58 144.16L364.42 144.88L363.24 145.58L362.02 146.26L360.78 146.91L359.53 147.54L358.26 148.14L356.99 148.72L355.72 149.27L354.45 149.8L353.2 150.3L351.95 150.78L350.73 151.23L349.54 151.66L348.37 152.06L347.25 152.44L346.16 152.79L345.12 153.11L344.14 153.41L343.21 153.69L342.34 153.94L341.55 154.16L340.82 154.36L340.18 154.53L339.62 154.67L339.15 154.79L338.78 154.88L338.5 154.95L338.33 154.99L338.28 155L326.56 158.44L315.15 162.02L304.05 165.75L293.27 169.61L282.81 173.62L272.65 177.77L262.81 182.06L253.29 186.49L244.08 191.06L235.18 195.78L226.59 200.64L218.32 205.64L210.36 210.78L202.72 216.06L195.38 221.48L188.37 227.05L181.66 232.76L175.27 238.61L169.2 244.6L163.43 250.74L157.98 257.01L152.85 263.43L148.02 269.99L143.51 276.69L139.32 283.53L135.44 290.52L131.87 297.64L128.61 304.91L125.67 312.32L123.05 319.88L120.73 327.57L118.73 335.41L117.04 343.38L115.67 351.5L114.61 359.76L113.86 368.17L113.43 376.71L113.31 385.4L113.51 394.23L114.01 403.2L113.65 402.82L113.29 402.45L112.94 402.09L112.61 401.74L112.28 401.41L111.96 401.08L111.65 400.76L111.35 400.45L111.06 400.16L110.79 399.87L110.52 399.59L110.26 399.33L110.01 399.07L109.77 398.82L109.54 398.59L109.32 398.36L109.11 398.15L108.91 397.94L108.72 397.74L108.54 397.56L108.37 397.38L108.21 397.22L108.06 397.06L107.92 396.92L107.78 396.79L107.66 396.66L107.55 396.55L107.45 396.44L107.36 396.35L107.28 396.27L107.2 396.19L107.14 396.13L107.09 396.08L107.05 396.04L107.01 396L106.99 395.98L101.73 385.44L97.23 375.04L93.47 364.8L90.42 354.73L88.04 344.83L86.3 335.11L85.17 325.57L84.61 316.23L84.59 307.07L85.08 298.12L86.05 289.37L87.46 280.84L89.27 272.53L91.46 264.44L94 256.57L96.84 248.95L99.96 241.56L103.32 234.42L106.89 227.54L110.64 220.91L114.53 214.55L118.53 208.46L122.61 202.64L126.73 197.1L130.86 191.85L132.21 190.22L130.52 190.59L128.81 190.9L127.08 191.15L125.32 191.32L123.54 191.43L121.75 191.46L119.95 191.43L118.18 191.32L116.42 191.15L114.68 190.9L112.97 190.59L111.28 190.22L109.62 189.78L107.98 189.28L106.37 188.72L104.79 188.1L103.25 187.42L101.73 186.69L100.25 185.9L98.8 185.06L97.39 184.16L96.02 183.21L94.69 182.21L93.4 181.17L92.15 180.08L90.94 178.94L89.78 177.76L88.67 176.53L87.6 175.26L86.59 173.96L85.62 172.61L84.71 171.23L83.85 169.81L83.04 168.36L82.29 166.87L81.6 165.35L80.97 163.8L80.4 162.22L79.89 160.62L79.44 158.99L79.06 157.33L78.74 155.65L78.5 153.95L78.32 152.22L78.21 150.48L78.17 148.72L78.21 146.96L78.32 145.22L78.5 143.49L78.74 141.79L79.06 140.11L79.44 138.45L79.89 136.82L80.4 135.22L80.97 133.64L81.6 132.09L82.29 130.57L83.04 129.08L83.85 127.63L84.71 126.21L85.62 124.83L86.59 123.48L87.6 122.18L88.67 120.91L89.78 119.68L90.94 118.5L92.15 117.36L93.4 116.27L94.69 115.23L96.02 114.23L97.39 113.28L98.8 112.38L100.25 111.54L101.73 110.75L103.25 110.02L104.79 109.34L106.37 108.72L107.98 108.16L109.62 107.66L111.28 107.22L112.97 106.85L114.68 106.54L116.42 106.29L118.18 106.12L119.95 106.01L121.75 105.98L123.54 106.01L125.32 106.12L127.08 106.29L128.81 106.54L130.52 106.85L132.21 107.22L133.88 107.66L135.51 108.16L137.12 108.72L138.7 109.34L140.25 110.02L141.76 110.75L143.25 111.54L144.69 112.38L146.1 113.28L147.47 114.23L148.81 115.23L150.1 116.27L151.35 117.36L152.55 118.5L153.71 119.68L154.83 120.91L155.89 122.18L156.91 123.48L157.88 124.83L158.79 126.21L159.65 127.63L160.45 129.08L161.2 130.57L161.89 132.09L162.53 133.64L163.1 135.22L163.61 136.82L164.05 138.45L164.44 140.11L164.75 141.79L165 143.49L165.18 145.22L165.28 146.96L165.32 148.72L165.28 150.48L165.18 152.22L165 153.95L164.75 155.65L164.44 157.31L165.5 156.41L167.57 154.69L169.24 153.34L170.5 152.34L171.31 151.71L171.63 151.46L177.67 146.97L183.69 142.68L189.68 138.59L195.63 134.68L201.54 130.97L207.41 127.43L213.22 124.07L218.97 120.88L224.65 117.86L230.26 115L235.79 112.31L241.24 109.77L246.59 107.38L251.85 105.13L257 103.03L262.05 101.07L266.97 99.24L271.78 97.54L276.45 95.96L280.99 94.51L285.39 93.17L289.64 91.94L293.74 90.82L297.68 89.81L301.45 88.89L305.05 88.07L308.47 87.34L311.71 86.69L314.75 86.13L317.6 85.64L320.24 85.23L322.68 84.88L324.89 84.61L326.89 84.39L328.66 84.22L330.19 84.11L331.48 84.05L332.52 84.02L333.31 84.04L333.84 84.09L333.84 84.09L337.78 84.73ZM106.99 395.98L107 395.99L106.98 395.97L106.97 395.97L106.98 395.97L106.99 395.98L106.99 395.98L106.99 395.98Z" id="c6yGvxj"></path><path d="M130.13 349.36L130.09 350.95L130.06 352.51L130.02 354.04L129.99 355.53L129.95 357L129.92 358.43L129.89 359.84L129.86 361.21L129.83 362.55L129.8 363.86L129.77 365.14L129.74 366.4L129.71 367.62L129.68 368.81L129.66 369.96L129.63 371.09L129.6 372.19L129.58 373.26L129.56 374.29L129.53 375.3L129.51 376.28L129.49 377.22L129.47 378.13L129.45 379.02L129.43 379.87L129.41 380.69L129.39 381.48L129.37 382.24L129.36 382.97L129.34 383.67L129.32 384.34L129.31 384.98L129.3 385.59L129.28 386.16L129.27 386.71L129.26 387.23L129.25 387.71L129.24 388.17L129.23 388.59L129.22 389.51L129.23 390.43L129.26 391.34L129.31 392.25L129.39 393.16L129.48 394.06L129.6 394.96L129.74 395.86L129.89 396.75L130.07 397.64L130.27 398.52L130.49 399.39L130.72 400.26L130.98 401.12L131.26 401.98L131.55 402.82L131.87 403.67L132.2 404.5L132.55 405.32L132.92 406.14L133.31 406.95L133.72 407.75L134.15 408.54L134.59 409.32L135.05 410.09L135.54 410.85L136.03 411.59L136.55 412.33L137.08 413.06L137.63 413.77L138.2 414.48L138.78 415.17L139.38 415.85L140 416.51L140.63 417.16L141.28 417.8L141.95 418.43L142.63 419.04L143.33 419.63L144.04 420.21L144.49 420.57L144.93 420.92L145.35 421.26L145.77 421.59L146.17 421.91L146.57 422.22L146.95 422.52L147.32 422.82L147.67 423.1L148.02 423.38L148.36 423.64L148.68 423.9L149 424.15L149.3 424.39L149.59 424.62L149.87 424.84L150.13 425.06L150.39 425.26L150.64 425.46L150.87 425.64L151.09 425.82L151.31 425.99L151.51 426.15L151.69 426.3L151.87 426.44L152.04 426.57L152.19 426.69L152.34 426.81L152.47 426.91L152.59 427.01L152.7 427.1L152.8 427.18L152.88 427.25L152.96 427.31L153.03 427.36L153.08 427.4L153.12 427.43L153.15 427.46L153.17 427.47L153.18 427.48L157.5 430.44L161.8 433.26L166.07 435.96L170.3 438.54L174.49 441L178.63 443.34L182.73 445.56L186.78 447.67L190.78 449.67L194.71 451.57L198.58 453.36L202.39 455.05L206.12 456.64L209.78 458.14L213.36 459.54L216.86 460.85L220.28 462.08L223.6 463.22L226.83 464.27L229.96 465.25L232.99 466.15L235.92 466.98L238.74 467.73L241.44 468.42L244.03 469.04L246.49 469.6L248.83 470.09L251.04 470.53L253.12 470.91L255.07 471.25L256.87 471.53L258.53 471.76L260.04 471.95L261.4 472.1L262.6 472.21L263.65 472.28L264.53 472.32L265.24 472.33L265.78 472.32L266.15 472.27L268.89 471.75L271.48 471.17L273.91 470.55L276.19 469.89L278.32 469.19L280.3 468.45L282.15 467.67L283.87 466.86L285.45 466.02L286.91 465.15L288.24 464.25L289.46 463.33L290.57 462.38L291.57 461.41L292.46 460.43L293.26 459.43L293.95 458.42L294.56 457.39L295.08 456.36L295.52 455.32L295.88 454.28L296.16 453.23L296.38 452.18L296.53 451.14L296.62 450.1L296.66 449.07L296.64 448.04L296.57 447.03L296.46 446.03L296.31 445.05L296.12 444.09L295.91 443.15L295.67 442.23L295.4 441.33L295.12 440.46L294.83 439.63L294.52 438.82L294.22 438.05L293.91 437.31L293.6 436.61L293.27 435.95L292.87 435.3L292.41 434.66L291.9 434.05L291.34 433.46L290.72 432.88L290.07 432.32L289.37 431.77L288.63 431.25L287.86 430.74L287.06 430.25L286.24 429.78L285.39 429.33L284.52 428.89L283.64 428.47L282.75 428.06L281.85 427.68L280.95 427.31L280.04 426.96L279.15 426.62L278.25 426.31L277.37 426L276.51 425.72L275.66 425.45L274.84 425.2L274.04 424.97L273.27 424.75L272.54 424.55L271.84 424.37L271.18 424.2L270.57 424.05L270.01 423.91L269.5 423.79L269.04 423.69L268.65 423.6L268.32 423.53L268.05 423.47L267.86 423.43L267.74 423.41L267.7 423.4L264.1 422.49L260.5 421.54L256.91 420.53L253.33 419.47L249.76 418.36L246.2 417.2L242.64 415.99L239.1 414.73L235.56 413.42L232.04 412.06L228.52 410.64L225 409.18L221.5 407.67L218.01 406.11L214.52 404.49L211.05 402.83L207.58 401.11L204.12 399.35L200.67 397.53L197.22 395.66L193.79 393.75L190.36 391.78L186.95 389.76L183.54 387.7L180.14 385.58L176.75 383.41L173.36 381.19L169.99 378.92L166.62 376.6L163.27 374.23L159.92 371.81L156.58 369.33L153.25 366.81L149.92 364.24L146.61 361.62L143.3 358.94L140.01 356.22L136.72 353.45L133.44 350.62L130.17 347.74L130.17 347.74L130.13 349.36Z" id="a41BSh8VLQ"></path><path d="M527.93 237.91L528.27 238.26L528.59 238.59L528.91 238.92L529.22 239.24L529.52 239.55L529.81 239.84L530.09 240.13L530.35 240.41L530.61 240.67L530.86 240.93L531.1 241.18L531.33 241.41L531.55 241.64L531.76 241.85L531.96 242.06L532.15 242.26L532.33 242.44L532.5 242.62L532.66 242.78L532.81 242.94L532.95 243.08L533.09 243.21L533.21 243.34L533.32 243.45L533.42 243.56L533.51 243.65L533.59 243.73L533.67 243.81L533.73 243.87L533.78 243.92L533.82 243.96L533.86 244L533.88 244.02L533.88 244.02L539.15 254.56L543.64 264.96L547.4 275.2L550.46 285.27L552.83 295.17L554.57 304.89L555.7 314.43L556.26 323.77L556.28 332.93L555.79 341.88L554.82 350.63L553.41 359.16L551.6 367.47L549.41 375.56L546.87 383.43L544.03 391.05L540.91 398.44L537.55 405.58L533.98 412.46L530.23 419.09L526.34 425.45L522.34 431.54L518.26 437.36L514.14 442.9L510.01 448.15L508.85 449.54L509.48 449.41L511.19 449.1L512.92 448.85L514.68 448.68L516.46 448.57L518.25 448.54L520.05 448.57L521.82 448.68L523.58 448.85L525.32 449.1L527.03 449.41L528.72 449.78L530.38 450.22L532.02 450.72L533.63 451.28L535.21 451.9L536.75 452.58L538.27 453.31L539.75 454.1L541.2 454.94L542.61 455.84L543.98 456.79L545.31 457.79L546.6 458.83L547.85 459.92L549.06 461.06L550.22 462.24L551.33 463.47L552.4 464.74L553.41 466.04L554.38 467.39L555.29 468.77L556.15 470.19L556.96 471.64L557.71 473.13L558.4 474.65L559.03 476.2L559.6 477.78L560.11 479.38L560.56 481.01L560.94 482.67L561.26 484.35L561.5 486.05L561.68 487.78L561.79 489.52L561.83 491.28L561.79 493.04L561.68 494.78L561.5 496.51L561.26 498.21L560.94 499.89L560.56 501.55L560.11 503.18L559.6 504.78L559.03 506.36L558.4 507.91L557.71 509.43L556.96 510.92L556.15 512.37L555.29 513.79L554.38 515.17L553.41 516.52L552.4 517.82L551.33 519.09L550.22 520.32L549.06 521.5L547.85 522.64L546.6 523.73L545.31 524.77L543.98 525.77L542.61 526.72L541.2 527.62L539.75 528.46L538.27 529.25L536.75 529.98L535.21 530.66L533.63 531.28L532.02 531.84L530.38 532.34L528.72 532.78L527.03 533.15L525.32 533.46L523.58 533.71L521.82 533.88L520.05 533.99L518.25 534.02L516.46 533.99L514.68 533.88L512.92 533.71L511.19 533.46L509.48 533.15L507.79 532.78L506.12 532.34L504.49 531.84L502.88 531.28L501.3 530.66L499.75 529.98L498.24 529.25L496.75 528.46L495.31 527.62L493.9 526.72L492.53 525.77L491.19 524.77L489.9 523.73L488.65 522.64L487.45 521.5L486.29 520.32L485.17 519.09L484.11 517.82L483.09 516.52L482.12 515.17L481.21 513.79L480.35 512.37L479.55 510.92L478.8 509.43L478.11 507.91L477.47 506.36L476.9 504.78L476.39 503.18L475.95 501.55L475.56 499.89L475.25 498.21L475 496.51L474.82 494.78L474.72 493.04L474.68 491.28L474.72 489.52L474.82 487.78L475 486.05L475.25 484.35L475.4 483.57L475.37 483.59L473.31 485.31L471.63 486.66L470.37 487.66L469.56 488.29L469.24 488.54L463.2 493.03L457.18 497.32L451.19 501.41L445.24 505.32L439.33 509.03L433.46 512.57L427.65 515.93L421.9 519.12L416.22 522.14L410.61 525L405.08 527.69L399.63 530.23L394.28 532.62L389.02 534.87L383.87 536.97L378.83 538.93L373.9 540.76L369.09 542.46L364.42 544.04L359.88 545.49L355.48 546.83L351.23 548.06L347.13 549.18L343.19 550.19L339.42 551.11L335.82 551.93L332.4 552.66L329.16 553.31L326.12 553.87L323.27 554.36L320.63 554.77L318.19 555.12L315.98 555.39L313.98 555.61L312.21 555.78L310.68 555.89L309.39 555.95L308.35 555.98L307.56 555.96L307.03 555.91L303.09 555.27L299.37 554.56L295.88 553.77L292.6 552.92L289.53 551.99L286.66 551.01L283.99 549.97L281.51 548.87L279.21 547.72L277.1 546.52L275.15 545.28L273.37 543.99L271.75 542.67L270.28 541.31L268.96 539.92L267.78 538.51L266.74 537.07L265.83 535.61L265.04 534.13L264.37 532.64L263.81 531.14L263.35 529.63L263 528.12L262.73 526.62L262.56 525.11L262.46 523.61L262.44 522.13L262.49 520.65L262.61 519.2L262.77 517.77L262.99 516.36L263.26 514.98L263.56 513.63L263.9 512.32L264.26 511.05L264.64 509.81L265.04 508.63L265.44 507.49L265.85 506.41L266.25 505.38L266.7 504.4L267.23 503.44L267.86 502.5L268.56 501.58L269.34 500.69L270.19 499.82L271.1 498.98L272.07 498.16L273.1 497.36L274.17 496.59L275.29 495.84L276.45 495.12L277.63 494.42L278.85 493.74L280.09 493.09L281.34 492.46L282.61 491.86L283.88 491.28L285.15 490.73L286.42 490.2L287.67 489.7L288.92 489.22L290.14 488.77L291.33 488.34L292.5 487.94L293.62 487.56L294.71 487.21L295.75 486.89L296.73 486.59L297.66 486.31L298.53 486.06L299.32 485.84L300.05 485.64L300.69 485.47L301.25 485.33L301.72 485.21L302.09 485.12L302.37 485.05L302.54 485.01L302.59 485L314.31 481.56L325.72 477.98L336.82 474.25L347.6 470.39L358.06 466.38L368.22 462.23L378.06 457.94L387.58 453.51L396.8 448.94L405.69 444.22L414.28 439.36L422.55 434.36L430.51 429.22L438.15 423.94L445.49 418.52L452.5 412.95L459.21 407.24L465.6 401.39L471.68 395.4L477.44 389.26L482.89 382.99L488.02 376.57L492.85 370.01L497.36 363.31L501.55 356.47L505.43 349.48L509 342.36L512.26 335.09L515.2 327.68L517.83 320.12L520.14 312.43L522.14 304.59L523.83 296.62L525.2 288.5L526.26 280.24L527.01 271.83L527.44 263.29L527.56 254.6L527.36 245.77L526.86 236.8L527.22 237.18L527.58 237.55L527.58 237.55L527.93 237.91ZM533.89 244.03L533.88 244.02L533.87 244.01L533.89 244.03L533.9 244.03L533.9 244.03L533.89 244.03Z" id="c12LVQQP1a"></path><path d="M489.52 297.28C412.89 444.01 284.98 416.88 284.94 415.36C242.81 410.56 211.36 365.21 209.33 356.73C290.96 401.17 369.49 375.43 444.91 279.51C445.17 279.18 445.48 278.9 445.84 278.67C459.6 269.8 470.91 267.45 479.78 271.62C488.81 275.88 492.83 282.79 491.84 292.35C490.39 296.64 489.62 298.28 489.52 297.28Z" id="a20zkfQDkA"></path><path d="M510.69 288.96L510.73 287.37L510.76 285.81L510.8 284.29L510.83 282.79L510.86 281.33L510.9 279.89L510.93 278.49L510.96 277.11L510.99 275.77L511.02 274.46L511.05 273.18L511.08 271.93L511.11 270.71L511.14 269.52L511.16 268.36L511.19 267.23L511.21 266.13L511.24 265.06L511.26 264.03L511.28 263.02L511.31 262.05L511.33 261.1L511.35 260.19L511.37 259.3L511.39 258.45L511.41 257.63L511.43 256.84L511.44 256.08L511.46 255.35L511.48 254.65L511.49 253.98L511.51 253.34L511.52 252.73L511.53 252.16L511.55 251.61L511.56 251.1L511.57 250.61L511.58 250.16L511.59 249.73L511.6 248.81L511.59 247.89L511.56 246.98L511.5 246.07L511.43 245.16L511.33 244.26L511.22 243.36L511.08 242.46L510.92 241.57L510.75 240.69L510.55 239.81L510.33 238.93L510.09 238.06L509.84 237.2L509.56 236.35L509.27 235.5L508.95 234.66L508.62 233.82L508.27 233L507.89 232.18L507.5 231.37L507.1 230.58L506.67 229.79L506.22 229.01L505.76 228.24L505.28 227.48L504.78 226.73L504.27 225.99L503.74 225.26L503.19 224.55L502.62 223.84L502.04 223.15L501.43 222.48L500.82 221.81L500.18 221.16L499.53 220.52L498.87 219.9L498.19 219.29L497.49 218.69L496.78 218.11L496.33 217.75L495.89 217.4L495.46 217.07L495.05 216.74L494.64 216.42L494.25 216.1L493.87 215.8L493.5 215.51L493.14 215.22L492.8 214.95L492.46 214.68L492.14 214.42L491.82 214.17L491.52 213.93L491.23 213.7L490.95 213.48L490.68 213.26L490.43 213.06L490.18 212.87L489.95 212.68L489.72 212.5L489.51 212.33L489.31 212.17L489.12 212.02L488.95 211.88L488.78 211.75L488.62 211.63L488.48 211.51L488.35 211.41L488.23 211.31L488.12 211.22L488.02 211.15L487.93 211.08L487.86 211.02L487.79 210.96L487.74 210.92L487.7 210.89L487.67 210.86L487.65 210.85L487.64 210.84L483.31 207.89L479.02 205.06L474.75 202.36L470.52 199.78L466.33 197.32L462.18 194.99L458.08 192.76L454.04 190.65L450.04 188.65L446.11 186.75L442.24 184.96L438.43 183.27L434.7 181.68L431.04 180.18L427.45 178.78L423.95 177.47L420.54 176.24L417.22 175.1L413.99 174.05L410.85 173.07L407.82 172.17L404.9 171.34L402.08 170.59L399.38 169.9L396.79 169.28L394.33 168.73L391.99 168.23L389.77 167.79L387.69 167.41L385.75 167.08L383.95 166.8L382.29 166.56L380.78 166.37L379.42 166.22L378.21 166.11L377.17 166.04L376.29 166L375.58 165.99L375.04 166L374.67 166.05L371.92 166.57L369.34 167.15L366.91 167.77L364.63 168.43L362.5 169.13L360.51 169.87L358.67 170.65L356.95 171.46L355.37 172.3L353.91 173.17L352.57 174.07L351.35 175L350.25 175.94L349.25 176.91L348.36 177.89L347.56 178.89L346.86 179.9L346.26 180.93L345.74 181.96L345.3 183L344.94 184.05L344.65 185.09L344.44 186.14L344.29 187.18L344.2 188.22L344.16 189.25L344.18 190.28L344.25 191.29L344.36 192.29L344.51 193.27L344.69 194.23L344.91 195.18L345.15 196.1L345.41 196.99L345.69 197.86L345.99 198.7L346.29 199.5L346.6 200.27L346.91 201.01L347.21 201.71L347.55 202.38L347.95 203.03L348.4 203.66L348.92 204.27L349.48 204.87L350.09 205.44L350.75 206.01L351.45 206.55L352.19 207.07L352.96 207.58L353.75 208.07L354.58 208.54L355.43 209L356.29 209.43L357.17 209.85L358.07 210.26L358.97 210.64L359.87 211.01L360.77 211.36L361.67 211.7L362.56 212.02L363.44 212.32L364.31 212.6L365.16 212.87L365.98 213.12L366.78 213.35L367.55 213.57L368.28 213.77L368.98 213.96L369.63 214.12L370.25 214.28L370.81 214.41L371.32 214.53L371.77 214.63L372.17 214.72L372.5 214.79L372.76 214.85L372.96 214.89L373.08 214.91L373.12 214.92L376.72 215.83L380.32 216.79L383.91 217.79L387.49 218.85L391.06 219.96L394.62 221.12L398.17 222.33L401.72 223.59L405.25 224.9L408.78 226.27L412.3 227.68L415.81 229.14L419.32 230.65L422.81 232.22L426.29 233.83L429.77 235.5L433.24 237.21L436.7 238.98L440.15 240.79L443.59 242.66L447.03 244.57L450.45 246.54L453.87 248.56L457.28 250.63L460.68 252.74L464.07 254.91L467.45 257.13L470.83 259.4L474.19 261.72L477.55 264.09L480.9 266.52L484.24 268.99L487.57 271.51L490.89 274.08L494.21 276.7L497.51 279.38L500.81 282.1L504.1 284.88L507.38 287.7L510.65 290.58L510.65 290.58L510.69 288.96Z" id="b2WeTGU38"></path><path d="M341.49 326.3C332.38 345.63 308.99 353.79 289.28 344.51C269.57 335.23 260.96 312 270.07 292.66C279.17 273.33 302.57 265.17 322.27 274.45C341.98 283.73 350.59 306.96 341.49 326.3Z" id="hSjF1zdW"></path><path d="M215.61 219.59C221.6 215.25 227.41 214.37 233.04 216.96C246.98 224.07 251.39 235.35 246.28 250.81C235.29 275.92 234.29 312.78 243.28 361.4C243.1 365.54 230.95 360.34 206.82 345.78C191.7 307.36 192.94 267.68 210.54 226.76C211.18 225.68 212.87 223.29 215.61 219.59Z" id="a28fed4rzS"></path></defs><g><g><g><use xlink:href="#c6yGvxj" opacity="1" fill="#009fb7" fill-opacity="1"></use></g><g><use xlink:href="#a41BSh8VLQ" opacity="1" fill="#009fb7" fill-opacity="1"></use></g><g><use xlink:href="#c12LVQQP1a" opacity="1" fill="#272727" fill-opacity="1"></use></g><g><use xlink:href="#a20zkfQDkA" opacity="1" fill="#fed766" fill-opacity="1"></use></g><g><use xlink:href="#b2WeTGU38" opacity="1" fill="#272727" fill-opacity="1"></use></g><g><use xlink:href="#hSjF1zdW" opacity="1" fill="#fed766" fill-opacity="1"></use></g><g><use xlink:href="#a28fed4rzS" opacity="1" fill="#fed766" fill-opacity="1"></use></g></g></g></svg>